<svg width="50" height="49" viewBox="0 0 50 49" fill="none" xmlns="http://www.w3.org/2000/svg">
<ellipse cx="25" cy="24.5" rx="25" ry="24.5" fill="#D9D9D9"/>
<g clip-path="url(#clip0_20_25)">
<path d="M13.6332 18.972C14.0406 18.4483 14.3315 17.75 14.2442 17.0518C13.6332 17.0809 12.9059 17.4591 12.4695 17.9537C12.0913 18.3901 11.7421 19.1174 11.8294 19.7866C12.5277 19.8739 13.1968 19.4956 13.6332 18.972ZM14.2442 19.9612C13.255 19.903 12.4113 20.5139 11.9458 20.5139C11.4803 20.5139 10.7529 19.9902 9.96741 19.9902C8.94912 20.0193 8.01811 20.5721 7.49442 21.5031C6.44704 23.336 7.20348 26.0418 8.25087 27.5256C8.74546 28.2529 9.35644 29.0676 10.142 29.0385C10.8984 29.0094 11.1894 28.5439 12.0913 28.5439C12.9932 28.5439 13.255 29.0385 14.0697 29.0094C14.8843 28.9803 15.408 28.282 15.9026 27.5256C16.4844 26.6818 16.7172 25.8672 16.7172 25.8381C16.6881 25.809 15.117 25.2272 15.117 23.4233C15.0879 21.9104 16.339 21.1831 16.3972 21.154C15.728 20.1066 14.6224 19.9902 14.2442 19.9612Z" fill="black"/>
<path d="M22.7974 17.8955C24.9503 17.8955 26.4341 19.3793 26.4341 21.5032C26.4341 23.6561 24.9212 25.1399 22.7392 25.1399H20.3826V28.893H18.666V17.8955H22.7974ZM20.3826 23.7143H22.3319C23.8156 23.7143 24.6594 22.8997 24.6594 21.5322C24.6594 20.1357 23.8156 19.3502 22.3319 19.3502H20.3535V23.7143H20.3826ZM26.8705 26.6528C26.8705 25.2563 27.947 24.3835 29.8672 24.2671L32.0783 24.1507V23.5397C32.0783 22.6378 31.4673 22.1141 30.4782 22.1141C29.5181 22.1141 28.9362 22.5796 28.7907 23.2779H27.2196C27.3069 21.8232 28.558 20.7467 30.5363 20.7467C32.4856 20.7467 33.7367 21.765 33.7367 23.3943V28.9221H32.1656V27.6129H32.1365C31.671 28.5148 30.6527 29.0676 29.6053 29.0676C27.9761 29.0676 26.8705 28.0784 26.8705 26.6528ZM32.0783 25.9254V25.2854L30.0999 25.4017C29.1107 25.4599 28.558 25.8963 28.558 26.5946C28.558 27.2928 29.1398 27.7583 30.0126 27.7583C31.1764 27.7583 32.0783 26.9728 32.0783 25.9254ZM35.1914 31.8897V30.5514C35.3077 30.5805 35.5987 30.5805 35.7151 30.5805C36.4715 30.5805 36.8788 30.2604 37.1407 29.4458C37.1407 29.4167 37.2861 28.9512 37.2861 28.9512L34.3767 20.9213H36.1515L38.188 27.4674H38.2171L40.2537 20.9213H41.9994L39.0027 29.3876C38.3044 31.3369 37.5189 31.9479 35.8605 31.9479C35.7442 31.9188 35.3368 31.9188 35.1914 31.8897Z" fill="black"/>
</g>
<defs>
<clipPath id="clip0_20_25">
<rect width="35" height="35" fill="white" transform="translate(7 7)"/>
</clipPath>
</defs>
</svg>
