<svg width="694" height="614" viewBox="0 0 694 614" fill="none" xmlns="http://www.w3.org/2000/svg">
<g filter="url(#filter0_f_73_8)">
<path fill-rule="evenodd" clip-rule="evenodd" d="M425.56 457.882L424.403 459.085L423.236 460.303L422.058 461.532L420.87 462.774L419.668 464.026L418.454 465.287L417.225 466.557L415.981 467.833L414.722 469.116L413.446 470.404L412.153 471.697L410.842 472.994L409.513 474.294L408.166 475.596L406.8 476.901L405.415 478.208L404.01 479.516L402.586 480.826L401.14 482.137L399.675 483.448L398.188 484.76L396.681 486.073L395.152 487.387L393.601 488.7L392.028 490.015L390.433 491.329L388.815 492.644L387.175 493.959L385.511 495.274L383.823 496.589L382.112 497.904L380.377 499.219L378.617 500.532L376.832 501.845L375.022 503.156L373.186 504.466L371.325 505.773L369.437 507.077L367.523 508.377L365.582 509.673L363.614 510.963L361.618 512.247L359.596 513.522L357.545 514.789L355.467 516.045L353.361 517.29L351.228 518.52L349.067 519.735L346.878 520.934L344.662 522.114L342.419 523.273L340.149 524.412L337.853 525.527L335.53 526.617L333.182 527.682L330.808 528.719L328.41 529.727L325.987 530.705L323.541 531.652L321.072 532.565L318.581 533.445L316.068 534.29L313.534 535.099L310.979 535.871L308.406 536.604L305.813 537.299L303.203 537.953L300.576 538.567L297.932 539.139L295.273 539.669L292.6 540.155L289.913 540.598L287.213 540.997L284.502 541.351L281.779 541.66L279.046 541.923L276.305 542.14L273.555 542.311L270.797 542.435L268.033 542.512L265.263 542.542L262.489 542.524L259.711 542.46L256.93 542.347L254.146 542.187L251.362 541.979L248.577 541.723L245.793 541.419L243.01 541.068L240.23 540.668L237.453 540.221L234.679 539.726L231.911 539.184L229.148 538.594L226.392 537.956L223.643 537.272L220.903 536.54L218.171 535.76L215.45 534.934L212.74 534.061L210.041 533.142L207.356 532.176L204.684 531.163L202.026 530.104L199.384 528.999L196.758 527.849L194.15 526.652L191.56 525.41L188.989 524.123L186.438 522.791L183.908 521.414L181.4 519.993L178.913 518.529L176.449 517.022L174.009 515.474L171.591 513.884L169.197 512.253L166.828 510.584L164.482 508.876L162.161 507.13L159.864 505.347L157.591 503.529L155.343 501.675L153.119 499.788L150.919 497.867L148.743 495.914L146.592 493.93L144.464 491.915L142.36 489.87L140.279 487.796L138.222 485.694L136.189 483.565L134.178 481.408L132.19 479.225L130.226 477.016L128.284 474.782L126.365 472.523L124.469 470.24L122.595 467.933L120.745 465.603L118.917 463.249L117.113 460.872L115.332 458.473L113.574 456.052L111.841 453.608L110.131 451.142L108.447 448.655L106.788 446.146L105.154 443.616L103.547 441.064L101.967 438.491L100.415 435.897L98.8921 433.282L97.3982 430.646L95.9347 427.989L94.5026 425.312L93.1029 422.614L91.7367 419.896L90.4049 417.158L89.1089 414.4L87.8497 411.622L86.6284 408.825L85.4464 406.009L84.3048 403.174L83.2048 400.322L82.1478 397.451L81.135 394.563L80.1674 391.658L79.2464 388.737L78.3733 385.801L77.5491 382.849L76.775 379.884L76.0521 376.905L75.3816 373.913L74.7643 370.91L74.2013 367.895L73.6936 364.871L73.242 361.838L72.8472 358.797L72.5101 355.749L72.2313 352.695L72.0113 349.637L71.8507 346.575L71.7499 343.51L71.7092 340.444L71.7289 337.379L71.8092 334.314L71.9502 331.252L72.1518 328.193L72.4139 325.14L72.7365 322.092L73.119 319.052L73.5614 316.02L74.063 312.998L74.6234 309.987L75.2419 306.987L75.9179 304.001L76.6505 301.029L77.4389 298.073L78.2823 295.133L79.1795 292.21L80.1295 289.306L81.1314 286.421L82.1837 283.556L83.2854 280.712L84.4352 277.889L85.6316 275.089L86.8735 272.313L88.1594 269.56L89.4879 266.832L90.8577 264.128L92.2676 261.45L93.7167 258.798L95.2038 256.173L96.728 253.575L98.2887 251.004L99.8849 248.461L101.516 245.947L103.181 243.462L104.881 241.007L106.613 238.582L108.378 236.188L110.175 233.824L112.004 231.493L113.864 229.194L115.755 226.927L117.676 224.694L119.628 222.495L121.609 220.331L123.62 218.201L125.659 216.107L127.726 214.049L129.821 212.027L131.943 210.042L134.092 208.095L136.266 206.186L138.466 204.315L140.69 202.482L142.937 200.688L145.208 198.934L147.499 197.218L149.812 195.543L152.144 193.906L154.494 192.309L156.861 190.752L159.244 189.233L161.641 187.753L164.051 186.311L166.471 184.907L168.901 183.54L171.339 182.209L173.783 180.913L176.232 179.653L178.684 178.426L181.137 177.233L183.591 176.071L186.045 174.941L188.496 173.842L190.944 172.771L193.388 171.73L195.826 170.715L198.257 169.727L200.682 168.764L203.097 167.826L205.504 166.911L207.901 166.018L210.288 165.147L212.663 164.296L215.026 163.464L217.378 162.651L219.717 161.855L222.042 161.076L224.355 160.312L226.654 159.563L228.939 158.828L231.211 158.106L233.469 157.397L235.712 156.699L237.942 156.012L240.158 155.335L242.36 154.668L244.549 154.009L246.724 153.359L248.887 152.717L251.036 152.082L253.173 151.454L255.297 150.832L257.41 150.217L259.511 149.607L261.601 149.002L263.68 148.403L265.748 147.809L267.807 147.219L269.856 146.633L271.896 146.052L273.928 145.475L275.951 144.902L277.966 144.333L279.974 143.767L281.975 143.205L283.97 142.647L285.959 142.092L287.942 141.54L289.92 140.992L291.893 140.448L293.862 139.906L295.826 139.368L297.788 138.833L299.746 138.302L301.701 137.773L303.654 137.248L305.605 136.725L307.555 136.205L309.502 135.687L311.448 135.171L313.393 134.655L315.338 134.14L317.281 133.623L319.224 133.104L321.166 132.581L323.109 132.054L325.051 131.521L326.994 130.98L328.938 130.431L330.884 129.871L332.831 129.3L334.781 128.716L336.733 128.117L338.69 127.502L340.65 126.87L342.616 126.219L344.588 125.548L346.567 124.855L348.553 124.141L350.549 123.402L352.554 122.639L354.571 121.851L356.6 121.037L358.642 120.196L360.699 119.328L362.772 118.432L364.862 117.509L366.971 116.559L369.099 115.581L371.249 114.576L373.421 113.544L375.617 112.486L377.838 111.404L380.084 110.297L382.359 109.168L384.661 108.017L386.993 106.846L389.356 105.657L391.75 104.451L394.177 103.231L396.636 101.998L399.13 100.755L401.658 99.5032L404.221 98.2459L406.819 96.9852L409.453 95.7236L412.123 94.464L414.829 93.2089L417.571 91.9611L420.349 90.7237L423.162 89.4994L426.011 88.2913L428.895 87.1024L431.813 85.9358L434.765 84.7945L437.749 83.6817L440.765 82.6004L443.812 81.5538L446.888 80.5449L449.992 79.5768L453.123 78.6526L456.278 77.7752L459.457 76.9477L462.658 76.1729L465.878 75.4536L469.116 74.7926L472.369 74.1925L475.636 73.656L478.914 73.1856L482.2 72.7836L485.493 72.4523L488.79 72.1938L492.088 72.0102L495.385 71.9034L498.677 71.8751L501.964 71.9269L505.24 72.0603L508.505 72.2767L511.755 72.5772L514.987 72.9628L518.199 73.4344L521.388 73.9926L524.551 74.638L527.685 75.3709L530.789 76.1916L533.858 77.1L536.891 78.096L539.885 79.1794L542.838 80.3496L545.746 81.6061L548.609 82.948L551.424 84.3745L554.188 85.8845L556.9 87.4767L559.557 89.1498L562.159 90.9022L564.703 92.7323L567.187 94.6385L569.611 96.6186L571.972 98.6707L574.271 100.793L576.506 102.982L578.676 105.237L580.781 107.554L582.821 109.931L584.794 112.365L586.702 114.854L588.544 117.394L590.32 119.984L592.032 122.62L593.678 125.299L595.261 128.018L596.781 130.775L598.239 133.566L599.636 136.389L600.974 139.241L602.254 142.119L603.476 145.021L604.644 147.944L605.758 150.886L606.82 153.843L607.831 156.814L608.795 159.796L609.712 162.788L610.584 165.787L611.413 168.791L612.201 171.799L612.95 174.809L613.661 177.819L614.336 180.828L614.976 183.835L615.584 186.839L616.16 189.838L616.705 192.832L617.221 195.821L617.709 198.803L618.17 201.778L618.603 204.746L619.011 207.706L619.392 210.658L619.749 213.602L620.081 216.538L620.389 219.465L620.672 222.384L620.932 225.294L621.168 228.196L621.379 231.089L621.567 233.973L621.731 236.849L621.87 239.716L621.985 242.575L622.074 245.425L622.138 248.267L622.176 251.101L622.187 253.926L622.17 256.743L622.125 259.552L622.052 262.353L621.948 265.145L621.814 267.928L621.649 270.704L621.451 273.47L621.22 276.228L620.955 278.976L620.654 281.715L620.318 284.444L619.944 287.162L619.533 289.871L619.082 292.568L618.592 295.254L618.062 297.927L617.49 300.588L616.876 303.235L616.219 305.869L615.519 308.488L614.774 311.091L613.986 313.678L613.152 316.248L612.274 318.8L611.35 321.334L610.38 323.848L609.365 326.341L608.304 328.813L607.198 331.263L606.046 333.689L604.849 336.092L603.608 338.47L602.323 340.822L600.994 343.147L599.623 345.445L598.21 347.715L596.756 349.956L595.262 352.167L593.729 354.348L592.159 356.497L590.553 358.615L588.912 360.701L587.238 362.755L585.533 364.775L583.797 366.762L582.032 368.715L580.239 370.635L578.421 372.52L576.577 374.37L574.71 376.186L572.819 377.966L570.908 379.712L568.975 381.422L567.023 383.096L565.053 384.735L563.065 386.338L561.061 387.905L559.042 389.436L557.007 390.931L554.96 392.39L552.9 393.813L550.828 395.201L548.746 396.552L546.654 397.868L544.554 399.148L542.446 400.393L540.332 401.603L538.213 402.778L536.089 403.919L533.962 405.025L531.834 406.098L529.704 407.137L527.575 408.144L525.447 409.119L523.322 410.062L521.201 410.974L519.085 411.856L516.976 412.709L514.874 413.534L512.781 414.331L510.698 415.102L508.627 415.848L506.568 416.57L504.524 417.269L502.495 417.946L500.482 418.603L498.487 419.242L496.511 419.863L494.555 420.468L492.62 421.058L490.706 421.636L488.815 422.202L486.948 422.759L485.105 423.307L483.286 423.849L481.493 424.385L479.726 424.918L477.985 425.448L476.271 425.979L474.584 426.51L472.924 427.045L471.291 427.583L469.686 428.127L468.108 428.678L466.557 429.238L465.032 429.808L463.534 430.388L462.062 430.982L460.616 431.589L459.195 432.21L457.798 432.848L456.425 433.502L455.074 434.175L453.746 434.865L452.439 435.576L451.153 436.306L449.885 437.058L448.636 437.831L447.404 438.625L446.188 439.442L444.986 440.281L443.798 441.143L442.622 442.028L441.457 442.936L440.302 443.866L439.155 444.82L438.015 445.796L436.881 446.794L435.751 447.813L434.624 448.855L433.499 449.917L432.374 450.999L431.248 452.102L430.12 453.223L428.988 454.362L427.852 455.519L426.71 456.693L425.56 457.882Z" fill="url(#paint0_linear_73_8)"/>
</g>
<defs>
<filter id="filter0_f_73_8" x="0.708984" y="0.875" width="692.479" height="612.666" filterUnits="userSpaceOnUse" color-interpolation-filters="sRGB">
<feFlood flood-opacity="0" result="BackgroundImageFix"/>
<feBlend mode="normal" in="SourceGraphic" in2="BackgroundImageFix" result="shape"/>
<feGaussianBlur stdDeviation="35.5" result="effect1_foregroundBlur_73_8"/>
</filter>
<linearGradient id="paint0_linear_73_8" x1="474.321" y1="350.765" x2="-32.3476" y2="235.639" gradientUnits="userSpaceOnUse">
<stop stop-color="#9A7FD9"/>
<stop offset="1" stop-color="#4596BD"/>
</linearGradient>
</defs>
</svg>
