<svg width="86" height="86" viewBox="0 0 86 86" fill="none" xmlns="http://www.w3.org/2000/svg">
<path d="M10.7852 40.2051V56.2942C10.7852 72.3834 17.2352 78.8334 33.3243 78.8334H52.6385C68.7277 78.8334 75.1777 72.3834 75.1777 56.2942V40.2051" stroke="#0069AB" stroke-width="1.5" stroke-linecap="round" stroke-linejoin="round"/>
<path d="M42.9991 42.9993C49.5566 42.9993 54.3941 37.6602 53.7491 31.1027L51.3841 7.16602H34.6499L32.2491 31.1027C31.6041 37.6602 36.4416 42.9993 42.9991 42.9993Z" stroke="#0069AB" stroke-width="1.5" stroke-linecap="round" stroke-linejoin="round"/>
<path d="M65.611 42.9993C72.8494 42.9993 78.1527 37.1227 77.436 29.9202L76.4327 20.066C75.1427 10.7493 71.5594 7.16602 62.171 7.16602H51.2419L53.7502 32.2852C54.3594 38.1977 59.6985 42.9993 65.611 42.9993ZM20.2102 42.9993C26.1227 42.9993 31.4619 38.1977 32.0352 32.2852L32.8235 24.366L34.5435 7.16602H23.6144C14.226 7.16602 10.6427 10.7493 9.35269 20.066L8.38519 29.9202C7.66852 37.1227 12.9719 42.9993 20.2102 42.9993ZM43.0002 60.916C37.016 60.916 34.0419 63.8902 34.0419 69.8743V78.8327H51.9585V69.8743C51.9585 63.8902 48.9844 60.916 43.0002 60.916Z" stroke="#0069AB" stroke-width="1.5" stroke-linecap="round" stroke-linejoin="round"/>
</svg>
