<svg width="55" height="49" viewBox="0 0 55 49" fill="none" xmlns="http://www.w3.org/2000/svg">
<ellipse cx="28" cy="24.5" rx="25" ry="24.5" fill="#D9D9D9"/>
<path d="M33.1684 14.2793H21.8008V34.7205H33.1684V14.2793Z" fill="#FF5F00"/>
<path d="M22.5228 24.5C22.521 22.5313 22.9668 20.5881 23.8265 18.8174C24.6861 17.0466 25.9371 15.4948 27.4848 14.2794C25.5683 12.772 23.2666 11.8346 20.8428 11.5742C18.419 11.3139 15.971 11.7412 13.7784 12.8073C11.5859 13.8734 9.73728 15.5353 8.44398 17.603C7.15068 19.6706 6.46484 22.0607 6.46484 24.5C6.46484 26.9393 7.15068 29.3293 8.44398 31.397C9.73728 33.4647 11.5859 35.1265 13.7784 36.1926C15.971 37.2587 18.419 37.686 20.8428 37.4257C23.2666 37.1654 25.5683 36.228 27.4848 34.7206C25.9372 33.5051 24.6862 31.9533 23.8265 30.1826C22.9668 28.4118 22.521 26.4686 22.5228 24.5Z" fill="#EB001B"/>
<path d="M48.5037 24.5C48.5038 26.9392 47.818 29.3293 46.5248 31.397C45.2315 33.4646 43.383 35.1265 41.1905 36.1926C38.998 37.2587 36.55 37.686 34.1262 37.4257C31.7025 37.1654 29.4008 36.228 27.4844 34.7206C29.0306 33.5039 30.2807 31.9518 31.1402 30.1814C31.9997 28.4109 32.4464 26.4683 32.4464 24.5C32.4464 22.5317 31.9997 20.589 31.1402 18.8186C30.2807 17.0481 29.0306 15.496 27.4844 14.2794C29.4008 12.772 31.7025 11.8346 34.1262 11.5742C36.55 11.3139 38.998 11.7412 41.1905 12.8074C43.383 13.8735 45.2315 15.5353 46.5248 17.603C47.818 19.6707 48.5038 22.0607 48.5037 24.5Z" fill="#F79E1B"/>
<path d="M47.2648 32.5554V32.1369H47.4334V32.0516H47.0039V32.1369H47.1726V32.5554H47.2648ZM48.0985 32.5554V32.0508H47.9669L47.8155 32.3978L47.664 32.0508H47.5323V32.5554H47.6253V32.1747L47.7673 32.5029H47.8637L48.0057 32.1739V32.5554H48.0985Z" fill="#F79E1B"/>
</svg>
