<svg width="59" height="57" viewBox="0 0 59 57" fill="none" xmlns="http://www.w3.org/2000/svg">
<g filter="url(#filter0_d_20_43)">
<ellipse cx="30" cy="24.5" rx="25" ry="24.5" fill="#D9D9D9"/>
<path d="M23.1707 31.0163L25.3518 18.0962H28.8406L26.6578 31.0163H23.1707ZM39.2625 18.3747C38.5714 18.1129 37.4883 17.832 36.1357 17.832C32.6882 17.832 30.2601 19.5844 30.2393 22.0959C30.2198 23.9524 31.9729 24.9881 33.2963 25.6061C34.6544 26.2396 35.1108 26.6434 35.1043 27.2088C35.0956 28.0749 34.0198 28.4704 33.0169 28.4704C31.6206 28.4704 30.8788 28.2746 29.733 27.7924L29.2833 27.587L28.7937 30.4793C29.6086 30.8401 31.1154 31.1524 32.6801 31.1687C36.3475 31.1687 38.7283 29.4363 38.7554 26.7542C38.7684 25.2844 37.8389 24.1661 35.8261 23.2438C34.6066 22.6461 33.8598 22.2473 33.8677 21.6421C33.8677 21.105 34.4999 20.5308 35.8659 20.5308C37.0066 20.5129 37.8332 20.764 38.4771 21.0258L38.7897 21.1749L39.2625 18.3747ZM48.2404 18.096H45.5446C44.7095 18.096 44.0845 18.326 43.7178 19.1674L38.5364 31.0078H42.1999C42.1999 31.0078 42.7988 29.4158 42.9343 29.0662C43.3346 29.0662 46.8936 29.0718 47.4024 29.0718C47.5068 29.5241 47.8269 31.0078 47.8269 31.0078H51.0642L48.2404 18.0956V18.096ZM43.9632 26.439C44.2518 25.6946 45.3532 22.8272 45.3532 22.8272C45.3327 22.8616 45.6397 22.0792 45.8158 21.5941L46.0516 22.708C46.0516 22.708 46.7196 25.7922 46.8592 26.4388H43.9632V26.439ZM20.2089 18.096L16.7933 26.907L16.4294 25.1165C15.7935 23.0524 13.8124 20.8161 11.5977 19.6965L14.7209 30.9957L18.4122 30.9916L23.9047 18.0958L20.2089 18.0958" fill="#0E4595"/>
<path d="M13.6059 18.0957H7.98014L7.93555 18.3645C12.3123 19.434 15.2083 22.0185 16.4107 25.1242L15.1874 19.1869C14.9763 18.3687 14.3638 18.1245 13.606 18.096" fill="#F2AE14"/>
</g>
<defs>
<filter id="filter0_d_20_43" x="0" y="0" width="59" height="57" filterUnits="userSpaceOnUse" color-interpolation-filters="sRGB">
<feFlood flood-opacity="0" result="BackgroundImageFix"/>
<feColorMatrix in="SourceAlpha" type="matrix" values="0 0 0 0 0 0 0 0 0 0 0 0 0 0 0 0 0 0 127 0" result="hardAlpha"/>
<feOffset dy="4"/>
<feGaussianBlur stdDeviation="2"/>
<feComposite in2="hardAlpha" operator="out"/>
<feColorMatrix type="matrix" values="0 0 0 0 0 0 0 0 0 0 0 0 0 0 0 0 0 0 0.25 0"/>
<feBlend mode="normal" in2="BackgroundImageFix" result="effect1_dropShadow_20_43"/>
<feBlend mode="normal" in="SourceGraphic" in2="effect1_dropShadow_20_43" result="shape"/>
</filter>
</defs>
</svg>
