<svg width="67" height="67" viewBox="0 0 67 67" fill="none" xmlns="http://www.w3.org/2000/svg">
<path d="M61.4173 30.9882V19.2632C61.4173 9.49232 57.509 5.58398 47.7382 5.58398H36.0131C26.2423 5.58398 22.334 9.49232 22.334 19.2632V22.334H30.9882C40.759 22.334 44.6673 26.2423 44.6673 36.0131V44.6673H47.7382C57.509 44.6673 61.4173 40.759 61.4173 30.9882Z" stroke="#0069AB" stroke-width="1.5" stroke-linecap="round" stroke-linejoin="round"/>
<path d="M44.6673 47.7382V36.0131C44.6673 26.2423 40.759 22.334 30.9882 22.334H19.2632C9.49232 22.334 5.58398 26.2423 5.58398 36.0131V47.7382C5.58398 57.509 9.49232 61.4173 19.2632 61.4173H30.9882C40.759 61.4173 44.6673 57.509 44.6673 47.7382Z" stroke="#0069AB" stroke-width="1.5" stroke-linecap="round" stroke-linejoin="round"/>
<path d="M16.9727 41.8754L22.4164 47.3191L33.276 36.4316" stroke="#0069AB" stroke-width="1.5" stroke-linecap="round" stroke-linejoin="round"/>
</svg>
