<svg width="270" height="46" viewBox="0 0 270 46" fill="none" xmlns="http://www.w3.org/2000/svg">
<path d="M160.057 10.3214C161.862 10.301 163.671 10.3092 165.48 10.3173C168.067 10.2887 170.622 11.2606 172.638 12.8613C174.936 14.6743 176.48 17.3734 176.973 20.2521C177.316 22.6654 177.014 25.193 175.906 27.3817C174.382 30.5259 171.404 32.9473 167.99 33.7068C166.348 34.1682 164.628 34.0049 162.942 34.0375C161.235 34.0008 159.495 34.1723 157.824 33.7313C155.282 33.1841 152.96 31.7182 151.31 29.7092C149.15 27.1081 148.176 23.5433 148.775 20.2113C149.554 14.7927 154.565 10.3214 160.057 10.3214ZM158.961 16.0789C157.368 16.4954 155.926 17.5204 155.091 18.9577C154.105 20.5461 153.974 22.5837 154.577 24.3396C155.245 26.0709 156.688 27.5164 158.468 28.0718C159.837 28.5822 161.316 28.3494 162.742 28.4025C164.29 28.3413 165.904 28.6108 167.383 28.0228C169.489 27.3163 171.078 25.3604 171.436 23.1799C171.51 22.1223 171.563 21.0076 171.119 20.0153C170.422 18.0471 168.654 16.5159 166.625 16.0626C165.663 15.9034 164.685 16.0259 163.72 15.9156C162.938 15.838 162.155 16.0667 161.373 15.9197C160.579 16.0177 159.756 15.9074 158.961 16.0789Z" fill="#0469AE"/>
<path d="M59.1095 10.3866C60.9837 10.3825 62.8579 10.3866 64.732 10.3866C64.7402 18.2715 64.732 26.1565 64.732 34.0374C62.8579 34.0374 60.9796 34.0415 59.1055 34.0333C59.1136 26.1483 59.1055 18.2675 59.1095 10.3866Z" fill="#0469AE"/>
<path d="M68.0531 10.3834C69.5728 10.3875 71.0925 10.3753 72.6122 10.3916C76.7801 14.6995 80.9644 18.9911 85.1568 23.2746C85.5969 23.7074 85.9758 24.2097 86.5013 24.5486C86.5217 19.8282 86.4973 15.1038 86.5136 10.3834C88.4 10.3875 90.2863 10.3834 92.1727 10.3834C92.1768 18.2684 92.1727 26.1534 92.1727 34.0342C90.6775 34.0383 89.1822 34.0342 87.6869 34.0342C83.0382 29.2894 78.4017 24.5404 73.7448 19.8078C73.7367 24.5527 73.7448 29.2935 73.7448 34.0383C71.8462 34.0383 69.9476 34.0424 68.0449 34.0342C68.0531 26.1493 68.049 18.2684 68.0531 10.3834Z" fill="#0469AE"/>
<path d="M95.4932 34.0377C95.4932 26.1527 95.4891 18.2678 95.4973 10.3828C103.259 10.3869 111.016 10.3828 118.778 10.3828C118.782 12.2857 118.778 14.1885 118.778 16.0913C112.927 16.0913 107.076 16.0913 101.226 16.0913C101.213 17.1775 101.222 18.2596 101.218 19.3458C106.494 19.3499 111.774 19.3458 117.05 19.3458C117.046 21.2445 117.058 23.1474 117.05 25.0502C111.774 25.0502 106.498 25.0502 101.226 25.0502C101.213 26.1405 101.222 27.2348 101.222 28.3251C107.072 28.3251 112.927 28.3251 118.778 28.3251C118.778 30.2238 118.778 32.1267 118.778 34.0295C111.016 34.0377 103.255 34.0377 95.4932 34.0377Z" fill="#0469AE"/>
<path d="M122.18 34.0372C122.18 26.1523 122.172 18.2673 122.184 10.3823C127.558 10.3864 132.936 10.3823 138.31 10.3823C140.401 10.3415 142.482 11.1459 144.047 12.5302C145.815 14.1145 146.846 16.4951 146.72 18.8798C146.63 20.0191 146.43 21.1502 145.889 22.1751C145.131 23.6941 143.839 24.8905 142.377 25.7235C142.552 26.2217 143.016 26.5198 143.354 26.8995C145.648 29.2883 147.97 31.6444 150.272 34.0209C147.604 34.0617 144.935 34.025 142.262 34.0372C140.013 31.677 137.785 29.2924 135.515 26.9526C132.981 26.8628 130.435 26.924 127.897 26.924C127.913 29.2965 127.897 31.6648 127.905 34.0372C125.998 34.0372 124.087 34.0372 122.18 34.0372ZM127.917 16.0664C127.901 17.761 127.917 19.4515 127.909 21.1461C131.437 21.1502 134.97 21.1583 138.498 21.142C139.569 21.1502 140.572 20.4478 140.93 19.4311C141.362 18.3612 140.779 17.0954 139.838 16.5074C139.28 16.1276 138.579 16.1031 137.927 16.0868C134.591 16.0868 131.254 16.0745 127.917 16.0664Z" fill="#0469AE"/>
<path d="M190.806 10.3866C196.212 10.3825 201.615 10.3866 207.021 10.3866C209.242 10.3498 211.454 11.2808 212.99 12.8897C214.31 14.2168 215.117 16.0134 215.333 17.8673C215.61 20.3541 214.6 22.9184 212.782 24.6252C211.299 26.0503 209.279 26.8711 207.229 26.9119C203.636 26.9283 200.046 26.8997 196.453 26.9283C196.457 29.2966 196.453 31.669 196.453 34.0415C194.57 34.0374 192.688 34.0496 190.806 34.0333C190.81 26.1483 190.802 18.2675 190.806 10.3866ZM196.432 16.2054C196.473 17.8469 196.445 19.4925 196.449 21.1381C199.851 21.1707 203.253 21.1381 206.651 21.1544C207.384 21.1748 208.183 21.0727 208.749 20.5623C209.486 19.9866 209.825 18.9535 209.556 18.0551C209.311 16.8301 208.04 16.0502 206.842 16.0992C203.66 16.091 200.478 16.1033 197.292 16.0951C196.995 16.0706 196.709 16.1237 196.432 16.2054Z" fill="#000D12"/>
<path d="M211.531 34.0357C216.009 26.1385 220.519 18.2617 225.025 10.3809C226.419 10.3809 227.812 10.3809 229.205 10.3809C233.267 17.4777 237.325 24.5746 241.387 31.6756C241.848 32.4473 242.247 33.2558 242.761 33.999C240.56 34.0929 238.356 34.0031 236.156 34.0439C235.521 32.8638 234.795 31.7327 234.188 30.5322C229.495 30.5159 224.801 30.5445 220.112 30.52C219.391 31.6633 218.783 32.8761 218.087 34.0398C215.903 34.0398 213.715 34.0357 211.531 34.0357ZM227.062 18.2332C225.889 20.4586 224.577 22.6064 223.375 24.8114C225.893 24.8155 228.415 24.8196 230.933 24.8074C229.898 23.0597 228.908 21.2793 227.889 19.5235C227.633 19.0825 227.421 18.6088 227.062 18.2332Z" fill="#000D12"/>
<path d="M235.766 10.3981C238.381 10.3655 241.001 10.3981 243.617 10.3818C243.971 10.296 244.146 10.6676 244.383 10.8514C247.1 13.5015 249.85 16.1107 252.556 18.7731C255.424 15.9801 258.309 13.1993 261.169 10.394C263.894 10.3777 266.62 10.3859 269.346 10.394C264.697 14.9225 260.073 19.4795 255.412 23.9957C255.404 27.3441 255.412 30.6924 255.412 34.0408C253.513 34.0408 251.615 34.0408 249.72 34.0408C249.72 30.6883 249.724 27.3359 249.716 23.9875C245.043 19.4673 240.431 14.9021 235.766 10.3981Z" fill="#000D12"/>
<path d="M47.1152 9.45157C43.6439 4.80062 38.3433 1.59111 32.6149 0.700934C29.7303 0.406933 26.8294 0.406932 23.9367 0.455933C23.2685 0.431433 22.8326 1.00719 22.3844 1.40735C20.0295 3.79612 17.6501 6.16447 15.2789 8.5369C14.2888 9.52507 13.3558 10.5949 12.2028 11.4034C12.6184 11.5586 13.038 11.7301 13.4984 11.6852C16.9982 11.6892 20.5021 11.6729 24.0019 11.6811C26.7887 11.7137 29.6121 11.4892 32.3541 12.118L32.6108 12.2078C36.8602 13.5839 39.9893 17.6509 40.3723 22.0936C40.9182 27.2468 37.394 32.2898 32.5619 33.9354C29.5021 34.7316 26.3242 34.3233 23.2074 34.4213C21.3821 34.4172 19.5528 34.4499 17.7275 34.3764C17.6175 31.5507 17.7642 28.7209 17.6827 25.8912C17.6908 24.9479 17.5768 23.9761 17.8294 23.0532C19.6302 22.9062 21.4432 23.041 23.2481 22.9716C19.732 19.3047 12.0317 11.9506 11.8565 11.8934C8.26706 15.6583 4.4617 19.2108 0.84375 22.9552C2.70569 23.0206 4.5717 22.9756 6.43364 23.0124C6.55587 30.5625 6.44994 38.1167 6.48661 45.6669C14.5985 45.5974 22.7185 45.8261 30.8222 45.5362C31.4211 45.5444 32.016 45.4709 32.6149 45.4259C36.1106 44.7604 39.5126 43.4455 42.3931 41.3181C47.4778 37.6594 50.8716 31.7671 51.5032 25.5277C52.098 19.8805 50.5742 13.9841 47.1152 9.45157Z" fill="#021720"/>
</svg>
